<svg width="21" height="23" viewBox="0 0 21 23" fill="none" xmlns="http://www.w3.org/2000/svg">
<path d="M13.5579 18.7908C12.7711 18.7908 12.1053 18.5203 11.5605 17.9791C11.0158 17.4379 10.7434 16.7865 10.7434 16.0248C10.7434 15.2431 11.0158 14.5817 11.5605 14.0405C12.1053 13.4993 12.7711 13.2288 13.5579 13.2288C14.3246 13.2288 14.9803 13.4993 15.525 14.0405C16.0697 14.5817 16.3421 15.2431 16.3421 16.0248C16.3421 16.7865 16.0697 17.4379 15.525 17.9791C14.9803 18.5203 14.3246 18.7908 13.5579 18.7908ZM2.17895 23C1.57368 23 1.05921 22.7895 0.635527 22.3686C0.211842 21.9477 0 21.4366 0 20.8353V4.72026C0 4.11895 0.211842 3.60784 0.635527 3.18693C1.05921 2.76601 1.57368 2.55556 2.17895 2.55556H3.87368V0.932026C3.87368 0.67146 3.95923 0.45098 4.13032 0.270588C4.30221 0.090196 4.5193 0 4.78158 0C5.06404 0 5.29081 0.090196 5.4619 0.270588C5.63379 0.45098 5.71974 0.67146 5.71974 0.932026V2.55556H14.8895V0.901961C14.8895 0.661438 14.9803 0.45098 15.1618 0.270588C15.3434 0.090196 15.5553 0 15.7974 0C16.0597 0 16.2763 0.090196 16.4474 0.270588C16.6193 0.45098 16.7053 0.661438 16.7053 0.901961V2.55556H18.4C19.0053 2.55556 19.5197 2.76601 19.9434 3.18693C20.3671 3.60784 20.5789 4.11895 20.5789 4.72026V20.8353C20.5789 21.4366 20.3671 21.9477 19.9434 22.3686C19.5197 22.7895 19.0053 23 18.4 23H2.17895ZM2.17895 21.1961H18.4C18.5009 21.1961 18.5868 21.1612 18.6578 21.0915C18.7281 21.0209 18.7632 20.9355 18.7632 20.8353V9.53072H1.81579V20.8353C1.81579 20.9355 1.8513 21.0209 1.92232 21.0915C1.99253 21.1612 2.07807 21.1961 2.17895 21.1961ZM1.81579 7.7268H18.7632V4.72026C18.7632 4.62004 18.7281 4.53506 18.6578 4.46531C18.5868 4.39475 18.5009 4.35948 18.4 4.35948H2.17895C2.07807 4.35948 1.99253 4.39475 1.92232 4.46531C1.8513 4.53506 1.81579 4.62004 1.81579 4.72026V7.7268ZM1.81579 7.7268V4.35948V7.7268Z" fill="#1DA1F2"/>
</svg>
