<svg width="11" height="10" viewBox="0 0 11 10" fill="none" xmlns="http://www.w3.org/2000/svg">
<path d="M5.60001 6.06464L1.87377 9.79087C1.73435 9.93029 1.55691 10 1.34145 10C1.12599 10 0.948548 9.93029 0.809131 9.79087C0.669714 9.65146 0.600006 9.47402 0.600006 9.25856C0.600006 9.04309 0.669714 8.86565 0.809131 8.72624L4.53537 5L0.809131 1.27376C0.669714 1.13435 0.600006 0.956907 0.600006 0.741445C0.600006 0.525982 0.669714 0.348542 0.809131 0.209125C0.948548 0.0697082 1.12599 0 1.34145 0C1.55691 0 1.73435 0.0697082 1.87377 0.209125L5.60001 3.93536L9.32624 0.209125C9.46566 0.0697082 9.6431 0 9.85856 0C10.074 0 10.2515 0.0697082 10.3909 0.209125C10.5303 0.348542 10.6 0.525982 10.6 0.741445C10.6 0.956907 10.5303 1.13435 10.3909 1.27376L6.66464 5L10.3909 8.72624C10.5303 8.86565 10.6 9.04309 10.6 9.25856C10.6 9.47402 10.5303 9.65146 10.3909 9.79087C10.2515 9.93029 10.074 10 9.85856 10C9.6431 10 9.46566 9.93029 9.32624 9.79087L5.60001 6.06464Z" fill="#1DA1F2"/>
</svg>
