<svg width="13" height="14" viewBox="0 0 13 14" fill="none" xmlns="http://www.w3.org/2000/svg">
<path d="M3.5 8.4C3.30167 8.4 3.1353 8.3328 3.0009 8.1984C2.86697 8.06447 2.8 7.89833 2.8 7.7C2.8 7.50167 2.86697 7.3353 3.0009 7.2009C3.1353 7.06697 3.30167 7 3.5 7C3.69833 7 3.8647 7.06697 3.9991 7.2009C4.13303 7.3353 4.2 7.50167 4.2 7.7C4.2 7.89833 4.13303 8.06447 3.9991 8.1984C3.8647 8.3328 3.69833 8.4 3.5 8.4ZM6.3 8.4C6.10167 8.4 5.93553 8.3328 5.8016 8.1984C5.6672 8.06447 5.6 7.89833 5.6 7.7C5.6 7.50167 5.6672 7.3353 5.8016 7.2009C5.93553 7.06697 6.10167 7 6.3 7C6.49833 7 6.6647 7.06697 6.7991 7.2009C6.93303 7.3353 7 7.50167 7 7.7C7 7.89833 6.93303 8.06447 6.7991 8.1984C6.6647 8.3328 6.49833 8.4 6.3 8.4ZM9.1 8.4C8.90167 8.4 8.73553 8.3328 8.6016 8.1984C8.4672 8.06447 8.4 7.89833 8.4 7.7C8.4 7.50167 8.4672 7.3353 8.6016 7.2009C8.73553 7.06697 8.90167 7 9.1 7C9.29833 7 9.46447 7.06697 9.5984 7.2009C9.7328 7.3353 9.8 7.50167 9.8 7.7C9.8 7.89833 9.7328 8.06447 9.5984 8.1984C9.46447 8.3328 9.29833 8.4 9.1 8.4ZM1.4 14C1.015 14 0.6853 13.863 0.4109 13.5891C0.136967 13.3147 0 12.985 0 12.6V2.8C0 2.415 0.136967 2.08553 0.4109 1.8116C0.6853 1.5372 1.015 1.4 1.4 1.4H2.1V0.6825C2.1 0.484167 2.16697 0.320833 2.3009 0.1925C2.4353 0.0641667 2.60167 0 2.8 0C2.99833 0 3.1647 0.0669666 3.2991 0.2009C3.43303 0.3353 3.5 0.501667 3.5 0.7V1.4H9.1V0.6825C9.1 0.484167 9.1672 0.320833 9.3016 0.1925C9.43553 0.0641667 9.60167 0 9.8 0C9.99833 0 10.1645 0.0669666 10.2984 0.2009C10.4328 0.3353 10.5 0.501667 10.5 0.7V1.4H11.2C11.585 1.4 11.9147 1.5372 12.1891 1.8116C12.463 2.08553 12.6 2.415 12.6 2.8V12.6C12.6 12.985 12.463 13.3147 12.1891 13.5891C11.9147 13.863 11.585 14 11.2 14H1.4ZM1.4 12.6H11.2V5.6H1.4V12.6ZM1.4 4.2H11.2V2.8H1.4V4.2ZM1.4 4.2V2.8V4.2Z" fill="#1DA1F2"/>
</svg>
